# xmcd CD database file
#
# Track frame offsets:
#	150
#	23464
#	36341
#	60693
#	77676
#	109499
#	127938
#	151996
#	166721
#	181152
#	201634
#	219772
#	233186
#	249033
#	281253
#	292566
#	307434
#
# Disc length: 4400 seconds
#
# Revision: 0
# Processed by: cddbd v1.5.2PL0 Copyright (c) Steve Scherf et al.
# Submitted via: CDex 1.70beta2
#
DISCID=dc112e11
DTITLE=Acid Drinkers - Varran Strikes Back
DYEAR=2008
DGENRE=Thrash Metal
TTITLE0=Acid Drinkers - Zero
TTITLE1=Acid Drinkers - The Joker
TTITLE2=Acid Drinkers - High Proof Cosmic Milk
TTITLE3=Acid Drinkers - Poplin Twist
TTITLE4=Acid Drinkers - United Suicide Legion
TTITLE5=Acid Drinkers - Street Rockin'
TTITLE6=Acid Drinkers - Slow And Stoned (Method of Yonash)
TTITLE7=Acid Drinkers - Barmy Army
TTITLE8=Acid Drinkers - Flooded With Wine
TTITLE9=Acid Drinkers - Pizza Driver
TTITLE10=Acid Drinkers - I Fuck The Violence
TTITLE11=Acid Drinkers - Always Look On The Bright Side Of Life
TTITLE12=Acid Drinkers - Wild Thing
TTITLE13=Acid Drinkers - Proud Mary
TTITLE14=Acid Drinkers - Dancing In The Slaughter House
TTITLE15=Acid Drinkers - Drug Dealer
TTITLE16=Acid Drinkers - Human Bazooka
EXTD=YEAR: 2008
EXTT0=
EXTT1=
EXTT2=
EXTT3=
EXTT4=
EXTT5=
EXTT6=
EXTT7=
EXTT8=
EXTT9=
EXTT10=
EXTT11=
EXTT12=
EXTT13=
EXTT14=
EXTT15=
EXTT16=
PLAYORDER=
